<?xml version="1.0" encoding="UTF-8"?>
<svg id="Layer_2" data-name="Layer 2" xmlns="http://www.w3.org/2000/svg" xmlns:xlink="http://www.w3.org/1999/xlink" viewBox="0 0 1366 437.09">
  <defs>
    <style>
      .cls-1 {
        fill: none;
      }

      .cls-2 {
        fill: #c43e00;
      }

      .cls-3 {
        fill: #603813;
      }

      .cls-4 {
        fill: url(#linear-gradient-3);
      }

      .cls-5 {
        fill: url(#linear-gradient-4);
      }

      .cls-5, .cls-6 {
        stroke: gray;
        stroke-width: 20px;
      }

      .cls-5, .cls-6, .cls-7 {
        stroke-miterlimit: 10;
      }

      .cls-8 {
        fill: #bf00a1;
      }

      .cls-9 {
        fill: url(#linear-gradient-2);
        opacity: .5;
      }

      .cls-6 {
        fill: url(#linear-gradient);
      }

      .cls-10 {
        fill: #096;
      }

      .cls-7 {
        fill: #009957;
        stroke: #009957;
      }

      .cls-11 {
        fill: #006837;
      }

      .cls-12 {
        clip-path: url(#clippath);
      }

      .cls-13 {
        fill: #999;
      }
    </style>
    <linearGradient id="linear-gradient" x1="32.5" y1="560.21" x2="1360.48" y2="560.21" gradientTransform="translate(-33.43 701.92) scale(1.03 -.54)" gradientUnits="userSpaceOnUse">
      <stop offset="0" stop-color="#069"/>
      <stop offset="1" stop-color="#007baa"/>
    </linearGradient>
    <linearGradient id="linear-gradient-2" x1="0" y1="204.35" x2="1366" y2="204.35" gradientTransform="matrix(1,0,0,1,0,0)" xlink:href="#linear-gradient"/>
    <clipPath id="clippath">
      <circle class="cls-1" cx="238.33" cy="208.84" r="101.31"/>
    </clipPath>
    <linearGradient id="linear-gradient-3" x1="927.35" y1="208.23" x2="927.85" y2="208.23" gradientUnits="userSpaceOnUse">
      <stop offset="0" stop-color="#fff" stop-opacity=".3"/>
      <stop offset="1" stop-color="#fff" stop-opacity="0"/>
    </linearGradient>
    <linearGradient id="linear-gradient-4" y1="1273.86" y2="1273.86" xlink:href="#linear-gradient"/>
  </defs>
  <g id="Layer_1-2" data-name="Layer 1">
    <g>
      <line class="cls-6" y1="397.63" x2="1366" y2="397.63"/>
      <rect class="cls-9" y="20.64" width="1366" height="367.42"/>
      <g class="cls-12">
        <circle class="cls-11" cx="126.96" cy="157.63" r="4.76"/>
        <circle class="cls-11" cx="133.91" cy="171.81" r="4.76"/>
        <circle class="cls-11" cx="124.06" cy="214.08" r="4.76"/>
        <circle class="cls-11" cx="125.45" cy="182.14" r="4.76"/>
        <circle class="cls-11" cx="125.45" cy="196.13" r="4.76"/>
        <circle class="cls-11" cx="135.83" cy="206.24" r="4.76"/>
        <circle class="cls-11" cx="156.46" cy="98.82" r="4.76"/>
        <circle class="cls-11" cx="138.99" cy="152.66" r="4.76"/>
        <circle class="cls-11" cx="149.95" cy="162.84" r="4.76"/>
        <circle class="cls-11" cx="140.6" cy="236.55" r="4.76"/>
        <circle class="cls-11" cx="145.19" cy="177.37" r="4.76"/>
        <circle class="cls-11" cx="138.34" cy="190.56" r="4.76"/>
        <circle class="cls-11" cx="165.95" cy="198.22" r="4.76"/>
        <circle class="cls-11" cx="135.83" cy="225.18" r="4.76"/>
        <circle class="cls-11" cx="133.91" cy="114.66" r="4.76"/>
        <circle class="cls-11" cx="128.82" cy="143.74" r="4.76"/>
        <circle class="cls-11" cx="147.86" cy="109.38" r="4.76"/>
        <circle class="cls-11" cx="135.03" cy="129.36" r="4.76"/>
        <circle class="cls-11" cx="147.86" cy="138.97" r="4.76"/>
        <circle class="cls-11" cx="162.92" cy="157.29" r="4.76"/>
        <circle class="cls-11" cx="161.19" cy="172.62" r="4.76"/>
        <circle class="cls-11" cx="157.82" cy="186.9" r="4.76"/>
        <circle class="cls-11" cx="149.95" cy="198.22" r="4.76"/>
        <circle class="cls-11" cx="148.2" cy="214.08" r="4.76"/>
        <circle class="cls-11" cx="151.02" cy="229.28" r="4.76"/>
        <circle class="cls-11" cx="175.48" cy="143.74" r="4.76"/>
        <circle class="cls-11" cx="172.11" cy="182.14" r="4.76"/>
        <circle class="cls-11" cx="175.72" cy="211" r="4.76"/>
        <circle class="cls-11" cx="160.96" cy="211" r="4.76"/>
        <circle class="cls-11" cx="162.92" cy="114.67" r="4.76"/>
        <circle class="cls-11" cx="149.95" cy="124.81" r="4.76"/>
        <circle class="cls-11" cx="162.92" cy="143.74" r="4.76"/>
        <circle class="cls-11" cx="177.2" cy="114.67" r="4.76"/>
        <circle class="cls-11" cx="170.22" cy="129.57" r="4.76"/>
        <circle class="cls-11" cx="125.45" cy="249.2" r="4.76"/>
        <circle class="cls-11" cx="126.96" cy="236.55" r="4.76"/>
        <circle class="cls-11" cx="148.2" cy="259.06" r="4.76"/>
        <circle class="cls-11" cx="134.22" cy="261.82" r="4.76"/>
        <circle class="cls-11" cx="149.95" cy="246.01" r="4.76"/>
        <circle class="cls-11" cx="117.43" cy="225.95" r="4.76"/>
        <circle class="cls-11" cx="145.19" cy="272.89" r="4.76"/>
        <circle class="cls-11" cx="138.34" cy="250.77" r="4.76"/>
        <circle class="cls-11" cx="158.16" cy="268.81" r="4.76"/>
        <circle class="cls-11" cx="170.96" cy="268.91" r="4.76"/>
        <circle class="cls-11" cx="160.96" cy="254.37" r="4.76"/>
        <circle class="cls-11" cx="173.46" cy="254.81" r="4.76"/>
        <circle class="cls-3" cx="185.72" cy="103.37" r="4.55"/>
        <circle class="cls-11" cx="170.72" cy="98.87" r="4.76"/>
        <circle class="cls-11" cx="161.22" cy="239.59" r="4.76"/>
        <circle class="cls-11" cx="178.22" cy="195.32" r="4.76"/>
        <circle class="cls-11" cx="165.45" cy="225.51" r="4.76"/>
        <circle class="cls-11" cx="162.92" cy="282.71" r="4.76"/>
        <circle class="cls-3" cx="184.86" cy="131.21" r="4.55"/>
        <circle class="cls-3" cx="189.41" cy="143.74" r="4.55"/>
        <circle class="cls-3" cx="183.13" cy="157.28" r="4.55"/>
        <circle class="cls-3" cx="174.98" cy="167.86" r="4.55"/>
        <circle class="cls-3" cx="175.48" cy="235.05" r="4.55"/>
        <circle class="cls-3" cx="187.68" cy="173.69" r="4.55"/>
        <circle class="cls-3" cx="189.41" cy="190.56" r="4.55"/>
        <circle class="cls-3" cx="187.68" cy="209.32" r="4.55"/>
        <circle class="cls-3" cx="185.72" cy="227.33" r="4.55"/>
        <circle class="cls-3" cx="183.13" cy="248.62" r="4.55"/>
        <circle class="cls-3" cx="182.98" cy="264.15" r="4.55"/>
        <circle class="cls-3" cx="193.96" cy="239.93" r="4.55"/>
        <circle class="cls-3" cx="192.23" cy="120.05" r="4.55"/>
        <circle class="cls-3" cx="201.39" cy="134.12" r="4.55"/>
        <circle class="cls-3" cx="202.33" cy="147.64" r="4.55"/>
        <circle class="cls-3" cx="202.33" cy="190.31" r="4.55"/>
        <circle class="cls-3" cx="214.25" cy="107.92" r="4.55"/>
        <circle class="cls-3" cx="201.39" cy="204.39" r="4.55"/>
        <circle class="cls-3" cx="215.19" cy="202.98" r="4.55"/>
        <circle class="cls-3" cx="190.19" cy="308.84" r="4.55"/>
        <circle class="cls-3" cx="200.99" cy="299.7" r="4.55"/>
        <circle class="cls-3" cx="175.72" cy="311.5" r="4.55"/>
        <circle class="cls-3" cx="189.41" cy="292.23" r="4.55"/>
        <circle class="cls-3" cx="193.96" cy="257.06" r="4.55"/>
        <circle class="cls-3" cx="199.01" cy="270.9" r="4.55"/>
        <circle class="cls-3" cx="198.51" cy="107.92" r="4.55"/>
        <circle class="cls-3" cx="214.25" cy="134.11" r="4.55"/>
        <circle class="cls-3" cx="215.19" cy="147.56" r="4.55"/>
        <circle class="cls-3" cx="202" cy="176.57" r="4.55"/>
        <circle class="cls-3" cx="227.53" cy="107.92" r="4.55"/>
        <circle class="cls-3" cx="210.64" cy="215.76" r="4.55"/>
        <circle class="cls-3" cx="201.39" cy="284.73" r="4.55"/>
        <circle class="cls-3" cx="218.18" cy="186.9" r="4.55"/>
        <circle class="cls-3" cx="212.16" cy="291.13" r="4.55"/>
        <circle class="cls-3" cx="214.25" cy="172.62" r="4.55"/>
        <circle class="cls-3" cx="238.81" cy="268.81" r="4.55"/>
        <circle class="cls-3" cx="209.7" cy="308.84" r="4.55"/>
        <circle class="cls-3" cx="219.74" cy="316.05" r="4.55"/>
        <circle class="cls-3" cx="207.61" cy="118.69" r="4.55"/>
        <circle class="cls-3" cx="222.98" cy="121.88" r="4.55"/>
        <circle class="cls-3" cx="228.05" cy="147.63" r="4.55"/>
        <circle class="cls-3" cx="198.56" cy="160.99" r="4.55"/>
        <circle class="cls-3" cx="209.7" cy="233.18" r="4.55"/>
        <circle class="cls-3" cx="205.93" cy="248.17" r="4.55"/>
        <circle class="cls-3" cx="227" cy="277.16" r="4.55"/>
        <circle class="cls-3" cx="227" cy="291.13" r="4.55"/>
        <circle class="cls-3" cx="210.64" cy="160.13" r="4.55"/>
        <circle class="cls-3" cx="219.74" cy="304.24" r="4.55"/>
        <circle class="cls-3" cx="219.74" cy="264.26" r="4.55"/>
        <circle class="cls-3" cx="231.55" cy="134.75" r="4.55"/>
        <circle class="cls-3" cx="230.66" cy="257.85" r="4.55"/>
        <circle class="cls-2" cx="238.81" cy="121.88" r="4.55"/>
        <circle class="cls-2" cx="241.57" cy="107.92" r="4.55"/>
        <circle class="cls-2" cx="253.19" cy="122.81" r="4.55"/>
        <circle class="cls-2" cx="253.19" cy="137.26" r="4.55"/>
        <circle class="cls-2" cx="243.36" cy="147.56" r="4.55"/>
        <circle class="cls-2" cx="223.5" cy="160.13" r="4.55"/>
        <circle class="cls-2" cx="237.16" cy="160.13" r="4.55"/>
        <circle class="cls-2" cx="253.19" cy="156.7" r="4.55"/>
        <circle class="cls-2" cx="228.05" cy="173.69" r="4.55"/>
        <circle class="cls-2" cx="243.36" cy="175.44" r="4.55"/>
        <circle class="cls-2" cx="256.87" cy="172.41" r="4.55"/>
        <circle class="cls-2" cx="234.26" cy="190.86" r="4.55"/>
        <circle class="cls-2" cx="228.68" cy="204.83" r="4.55"/>
        <circle class="cls-2" cx="256.87" cy="107.92" r="4.55"/>
        <circle class="cls-2" cx="269.16" cy="101.62" r="4.55"/>
        <circle class="cls-2" cx="266.16" cy="117.33" r="4.55"/>
        <circle class="cls-2" cx="267.8" cy="131.76" r="4.55"/>
        <circle class="cls-2" cx="263.25" cy="147.56" r="4.55"/>
        <circle class="cls-2" cx="252.32" cy="186.01" r="4.55"/>
        <circle class="cls-2" cx="246.12" cy="199.39" r="4.55"/>
        <circle class="cls-2" cx="234.26" cy="243.88" r="4.55"/>
        <circle class="cls-2" cx="246.89" cy="237.73" r="4.55"/>
        <circle class="cls-2" cx="250.67" cy="222.78" r="4.55"/>
        <circle class="cls-2" cx="256.87" cy="206.24" r="4.55"/>
        <circle class="cls-2" cx="246.12" cy="254.81" r="4.55"/>
        <circle class="cls-2" cx="240.48" cy="285.32" r="4.55"/>
        <circle class="cls-2" cx="248.64" cy="97.07" r="4.55"/>
        <circle class="cls-2" cx="280.14" cy="172.41" r="4.55"/>
        <circle class="cls-2" cx="280.14" cy="112.47" r="4.55"/>
        <circle class="cls-2" cx="282.08" cy="129.36" r="4.55"/>
        <circle class="cls-2" cx="277.53" cy="143.74" r="4.55"/>
        <circle class="cls-2" cx="282.08" cy="157.63" r="4.55"/>
        <circle class="cls-2" cx="293.03" cy="170.04" r="4.55"/>
        <circle class="cls-2" cx="267.8" cy="161.57" r="4.55"/>
        <circle class="cls-2" cx="267.8" cy="182.35" r="4.55"/>
        <circle class="cls-2" cx="264.31" cy="196.13" r="4.55"/>
        <circle class="cls-2" cx="266.16" cy="222.78" r="4.55"/>
        <circle class="cls-2" cx="259.76" cy="245.5" r="4.55"/>
        <circle class="cls-2" cx="258.7" cy="262.32" r="4.55"/>
        <circle class="cls-2" cx="292.07" cy="184.98" r="4.55"/>
        <circle class="cls-2" cx="277.53" cy="190.31" r="4.55"/>
        <circle class="cls-2" cx="275.59" cy="203.94" r="4.55"/>
        <circle class="cls-2" cx="288.48" cy="200.08" r="4.55"/>
        <circle class="cls-2" cx="280.14" cy="220.75" r="4.55"/>
        <circle class="cls-2" cx="273.71" cy="236.55" r="4.55"/>
        <circle class="cls-2" cx="296.51" cy="155.58" r="4.55"/>
        <circle class="cls-2" cx="296.51" cy="214.08" r="4.55"/>
        <circle class="cls-2" cx="272.35" cy="252.51" r="4.55"/>
        <circle class="cls-2" cx="271.04" cy="302.4" r="4.55"/>
        <circle class="cls-2" cx="268.86" cy="286.7" r="4.55"/>
        <circle class="cls-2" cx="270.71" cy="270.9" r="4.55"/>
        <circle class="cls-2" cx="290.22" cy="230.9" r="4.55"/>
        <circle class="cls-8" cx="286.63" cy="101.62" r="4.55"/>
        <circle class="cls-8" cx="294.77" cy="114.67" r="4.55"/>
        <circle class="cls-8" cx="297.58" cy="129.57" r="4.55"/>
        <circle class="cls-8" cx="290.22" cy="143.74" r="4.55"/>
        <circle class="cls-8" cx="301.06" cy="101.62" r="4.55"/>
        <circle class="cls-8" cx="314.25" cy="92.6" r="4.55"/>
        <circle class="cls-8" cx="308.6" cy="115.5" r="4.55"/>
        <circle class="cls-8" cx="312.35" cy="134.75" r="4.55"/>
        <circle class="cls-8" cx="304.34" cy="145.17" r="4.55"/>
        <circle class="cls-8" cx="308.89" cy="164.87" r="4.55"/>
        <circle class="cls-8" cx="316.42" cy="152.01" r="4.55"/>
        <circle class="cls-8" cx="305.61" cy="180.44" r="4.55"/>
        <circle class="cls-8" cx="318.1" cy="177.38" r="4.55"/>
        <circle class="cls-8" cx="307.81" cy="219.79" r="4.55"/>
        <circle class="cls-8" cx="304.05" cy="233.63" r="4.55"/>
        <circle class="cls-8" cx="299.32" cy="248.17" r="4.55"/>
        <circle class="cls-8" cx="298.13" cy="262.77" r="4.55"/>
        <circle class="cls-8" cx="283.93" cy="277.6" r="4.55"/>
        <circle class="cls-8" cx="298.13" cy="277.6" r="4.55"/>
        <circle class="cls-8" cx="282.08" cy="294.26" r="4.55"/>
        <circle class="cls-8" cx="297.58" cy="292.23" r="4.55"/>
        <circle class="cls-8" cx="291.18" cy="305.38" r="4.55"/>
        <circle class="cls-8" cx="280.14" cy="314.1" r="4.55"/>
        <circle class="cls-8" cx="294.77" cy="319.42" r="4.55"/>
        <circle class="cls-8" cx="305.61" cy="306.95" r="4.55"/>
        <circle class="cls-8" cx="311.87" cy="294.26" r="4.55"/>
        <circle class="cls-8" cx="322.65" cy="121.88" r="4.55"/>
        <circle class="cls-8" cx="326.54" cy="137.26" r="4.55"/>
        <circle class="cls-8" cx="328.42" cy="195.11" r="4.55"/>
        <circle class="cls-8" cx="330.31" cy="151.03" r="4.55"/>
        <circle class="cls-8" cx="331.08" cy="178.24" r="4.55"/>
        <circle class="cls-8" cx="328.42" cy="209.53" r="4.55"/>
        <circle class="cls-8" cx="321.99" cy="221.8" r="4.55"/>
        <circle class="cls-8" cx="338.62" cy="164.68" r="4.55"/>
        <circle class="cls-8" cx="335.63" cy="222.78" r="4.55"/>
        <circle class="cls-8" cx="332.97" cy="238.18" r="4.55"/>
        <circle class="cls-8" cx="311.87" cy="264.26" r="4.55"/>
        <circle class="cls-8" cx="315.56" cy="250.77" r="4.55"/>
        <circle class="cls-8" cx="330.31" cy="255.32" r="4.55"/>
        <circle class="cls-8" cx="320.11" cy="106.17" r="4.55"/>
        <circle class="cls-8" cx="318.1" cy="235.92" r="4.55"/>
        <circle class="cls-8" cx="334.86" cy="121.88" r="4.55"/>
        <circle class="cls-8" cx="342.63" cy="135.76" r="4.55"/>
        <circle class="cls-8" cx="345.67" cy="150.22" r="4.55"/>
        <circle class="cls-8" cx="321.99" cy="306.95" r="4.55"/>
        <circle class="cls-8" cx="332.97" cy="294.26" r="4.55"/>
        <circle class="cls-8" cx="336.84" cy="280.77" r="4.55"/>
        <circle class="cls-8" cx="340.18" cy="266.87" r="4.55"/>
        <circle class="cls-8" cx="342.63" cy="252.51" r="4.55"/>
        <circle class="cls-8" cx="347.18" cy="234.04" r="4.55"/>
        <circle class="cls-8" cx="344.73" cy="182.14" r="4.55"/>
        <circle class="cls-8" cx="341.12" cy="196.21" r="4.55"/>
        <circle class="cls-11" cx="131.72" cy="299.7" r="4.76"/>
        <circle class="cls-11" cx="149.15" cy="300.23" r="4.76"/>
        <circle class="cls-11" cx="140.43" cy="309.34" r="4.76"/>
        <circle class="cls-11" cx="122.19" cy="263.82" r="4.76"/>
        <circle class="cls-11" cx="151.02" cy="287.47" r="4.76"/>
        <circle class="cls-11" cx="139.79" cy="289.49" r="4.76"/>
        <circle class="cls-11" cx="124.06" cy="287.47" r="4.76"/>
        <circle class="cls-11" cx="162.58" cy="300.12" r="4.76"/>
        <circle class="cls-11" cx="162.58" cy="314.66" r="4.76"/>
        <circle class="cls-11" cx="115.24" cy="239.93" r="4.76"/>
        <circle class="cls-11" cx="176.7" cy="284.73" r="4.76"/>
        <circle class="cls-11" cx="133.58" cy="277.95" r="4.76"/>
        <circle class="cls-3" cx="198.51" cy="224.35" r="4.55"/>
        <circle class="cls-3" cx="178.22" cy="299.7" r="4.55"/>
        <circle class="cls-3" cx="189.41" cy="277.95" r="4.55"/>
        <circle class="cls-3" cx="206.89" cy="261.82" r="4.55"/>
        <circle class="cls-3" cx="212.16" cy="277.6" r="4.55"/>
        <circle class="cls-3" cx="201.39" cy="316.05" r="4.55"/>
        <circle class="cls-3" cx="219.74" cy="250.05" r="4.55"/>
        <circle class="cls-3" cx="205.93" cy="97.15" r="4.55"/>
        <circle class="cls-3" cx="234.26" cy="305.07" r="4.55"/>
        <circle class="cls-3" cx="222.73" cy="235.38" r="4.55"/>
        <circle class="cls-3" cx="219.74" cy="97.15" r="4.55"/>
        <circle class="cls-3" cx="232.6" cy="318.25" r="4.55"/>
        <circle class="cls-2" cx="223.5" cy="220.11" r="4.55"/>
        <circle class="cls-2" cx="236.1" cy="226.35" r="4.55"/>
        <circle class="cls-2" cx="241.57" cy="211.21" r="4.55"/>
        <circle class="cls-2" cx="252.32" cy="277.16" r="4.55"/>
        <circle class="cls-2" cx="245.03" cy="300.23" r="4.55"/>
        <circle class="cls-2" cx="246.12" cy="316.05" r="4.55"/>
        <circle class="cls-2" cx="267.8" cy="316.05" r="4.55"/>
        <circle class="cls-2" cx="257.74" cy="306.95" r="4.55"/>
        <circle class="cls-2" cx="255.22" cy="291.71" r="4.55"/>
        <circle class="cls-2" cx="285.67" cy="246.01" r="4.55"/>
        <circle class="cls-2" cx="284.29" cy="262.32" r="4.55"/>
        <circle class="cls-2" cx="302.68" cy="200.08" r="4.55"/>
        <circle class="cls-8" cx="325.76" cy="164.87" r="4.55"/>
        <circle class="cls-8" cx="315.56" cy="191.66" r="4.55"/>
        <circle class="cls-8" cx="315.56" cy="206.66" r="4.55"/>
        <circle class="cls-8" cx="311.87" cy="280.18" r="4.55"/>
        <circle class="cls-8" cx="313.15" cy="318.65" r="4.55"/>
        <circle class="cls-8" cx="352.43" cy="164.87" r="4.55"/>
        <circle class="cls-8" cx="325.76" cy="272.61" r="4.55"/>
        <circle class="cls-8" cx="322.65" cy="286.7" r="4.55"/>
        <circle class="cls-8" cx="335.63" cy="107.92" r="4.55"/>
        <circle class="cls-8" cx="345.67" cy="211.21" r="4.55"/>
        <circle class="cls-8" cx="347.85" cy="115.5" r="4.55"/>
        <circle class="cls-8" cx="356.98" cy="131.21" r="4.55"/>
      </g>
      <path class="cls-13" d="M328.75,286.43l21.99,22.3c-1.25.25-2.49.81-3.49,1.81l-3.55,3.55-20.93-21.24c2.06-2.06,4.05-4.24,5.98-6.42h0ZM329.43,329.73l-22.93-23.24c2.43-1.68,4.74-3.43,7.04-5.29l21.31,21.62-3.55,3.49c-1,1-1.62,2.18-1.87,3.43h0Z"/>
      <polygon class="cls-10" points="402.38 411.59 431.35 382.24 437.58 388.41 408.62 417.76 402.38 411.59"/>
      <path class="cls-7" d="M328.19,323.19l8.04-7.85,7.97-7.91c2.18-2.18,4.98-3.18,7.85-3.18s5.61,1.12,7.79,3.18l88.15,83.17c8.97,8.47,9.91,18.88,6.23,27.72-1.5,3.67-3.8,7.04-6.67,9.84-2.87,2.8-6.29,5.11-9.97,6.54-8.85,3.55-19.25,2.49-27.6-6.6l-81.99-89.21c-2.05-2.24-3.11-5.11-3.05-7.91,0-2.8,1.06-5.61,3.24-7.79h0ZM342.39,321.57l-8.04,7.85c-.44.44-.69,1.06-.69,1.62,0,.69.25,1.31.75,1.87l81.98,89.28c5.48,5.92,12.21,6.66,17.94,4.36,2.62-1,5.05-2.62,7.04-4.61,1.99-1.99,3.68-4.36,4.73-6.98,2.37-5.67,1.75-12.46-4.17-18l-88.15-83.17c-.5-.5-1.18-.75-1.87-.75-.56,0-1.12.19-1.56.62l-7.98,7.91Z"/>
      <circle class="cls-4" cx="237.91" cy="208.23" r="96.95"/>
      <path class="cls-13" d="M238.29,84.83c34.14,0,65.1,13.83,87.47,36.26,22.43,22.37,36.26,53.33,36.26,87.47s-13.83,65.1-36.26,87.53c-22.37,22.37-53.33,36.2-87.47,36.2s-65.1-13.83-87.47-36.2c-22.43-22.43-36.26-53.33-36.26-87.53s13.83-65.1,36.26-87.47c22.37-22.43,53.33-36.26,87.47-36.26h0ZM319.59,127.32c-20.81-20.81-49.53-33.7-81.3-33.7s-60.49,12.9-81.3,33.7c-20.75,20.75-33.64,49.53-33.64,81.24s12.9,60.49,33.64,81.3c20.81,20.81,49.59,33.64,81.3,33.64s60.49-12.83,81.3-33.64c20.74-20.81,33.64-49.53,33.64-81.3s-12.9-60.49-33.64-81.24h0ZM238.29,106.14c28.28,0,53.89,11.46,72.45,30.03,18.5,18.5,29.97,44.11,29.97,72.39s-11.46,53.89-29.97,72.45c-18.57,18.5-44.17,29.97-72.45,29.97s-53.89-11.46-72.39-29.97c-18.56-18.56-30.03-44.17-30.03-72.45s11.46-53.89,30.03-72.39c18.5-18.57,44.11-30.03,72.39-30.03h0ZM304.51,142.33c-16.94-16.94-40.37-27.41-66.22-27.41s-49.28,10.47-66.23,27.41c-16.94,16.94-27.41,40.37-27.41,66.22s10.47,49.28,27.41,66.22c16.95,16.95,40.37,27.41,66.23,27.41s49.28-10.47,66.22-27.41c16.95-16.94,27.41-40.37,27.41-66.22s-10.47-49.28-27.41-66.22h0Z"/>
      <line class="cls-5" y1="10" x2="1366" y2="10"/>
    </g>
  </g>
</svg>