<?xml version="1.0" encoding="UTF-8"?>
<svg id="Layer_2" data-name="Layer 2" xmlns="http://www.w3.org/2000/svg" viewBox="0 0 145.41 84.14">
  <defs>
    <style>
      .cls-1 {
        stroke: #a43e00;
      }

      .cls-1, .cls-2, .cls-3, .cls-4, .cls-5, .cls-6, .cls-7 {
        stroke-miterlimit: 10;
      }

      .cls-1, .cls-2, .cls-3, .cls-4, .cls-7 {
        fill: none;
        stroke-width: 8px;
      }

      .cls-2 {
        stroke: #b3b3b3;
      }

      .cls-8 {
        fill: #603813;
      }

      .cls-3 {
        stroke: #0095aa;
      }

      .cls-4 {
        stroke: blue;
      }

      .cls-5 {
        fill: #ac0071;
        stroke: #ac0071;
      }

      .cls-9 {
        fill: #477700;
      }

      .cls-10 {
        fill: blue;
      }

      .cls-6 {
        fill: #4cff4e;
        stroke: #4cff4e;
      }

      .cls-11 {
        fill: #003eaa;
      }

      .cls-12 {
        opacity: .5;
      }

      .cls-13 {
        fill: #a43e00;
      }

      .cls-14 {
        fill: #0095aa;
      }

      .cls-7 {
        stroke: #477700;
      }

      .cls-15 {
        fill: #b3b3b3;
      }

      .cls-16 {
        fill: #fbb03b;
      }

      .cls-17 {
        fill: #006837;
      }
    </style>
  </defs>
  <g id="Layer_1-2" data-name="Layer 1">
    <g>
      <circle class="cls-17" cx="10.96" cy="73.18" r="10.96"/>
      <g class="cls-12">
        <g>
          <line class="cls-7" x1="10.96" y1="56.42" x2="10.96" y2="39.71"/>
          <polygon class="cls-9" points="18.94 42.04 10.96 28.22 2.98 42.04 18.94 42.04"/>
        </g>
      </g>
      <g class="cls-12">
        <g>
          <line class="cls-4" x1="29.56" y1="11.46" x2="46.84" y2="11.46"/>
          <polygon class="cls-10" points="44.51 19.44 58.32 11.46 44.51 3.48 44.51 19.44"/>
        </g>
      </g>
      <circle class="cls-8" cx="10.96" cy="11.46" r="10.96"/>
      <circle class="cls-5" cx="72.45" cy="11.46" r="10.96"/>
      <circle class="cls-6" cx="133.95" cy="11.46" r="10.96"/>
      <g class="cls-12">
        <g>
          <line class="cls-1" x1="72.45" y1="28.22" x2="72.45" y2="44.93"/>
          <polygon class="cls-13" points="64.48 42.6 72.45 56.42 80.43 42.6 64.48 42.6"/>
        </g>
      </g>
      <g class="cls-12">
        <g>
          <line class="cls-3" x1="91.06" y1="73.18" x2="108.33" y2="73.18"/>
          <polygon class="cls-14" points="106 81.15 119.81 73.18 106 65.2 106 81.15"/>
        </g>
      </g>
      <circle class="cls-16" cx="72.45" cy="73.18" r="10.96"/>
      <circle class="cls-11" cx="133.94" cy="73.18" r="10.96"/>
      <g class="cls-12">
        <g>
          <line class="cls-2" x1="133.95" y1="56.42" x2="133.95" y2="39.71"/>
          <polygon class="cls-15" points="141.92 42.04 133.95 28.22 125.97 42.04 141.92 42.04"/>
        </g>
      </g>
    </g>
  </g>
</svg>